<?xml version="1.0" encoding="UTF-8"?>
<svg width="48" height="48" viewBox="0 0 48 48" fill="none" xmlns="http://www.w3.org/2000/svg">
  <!-- Background Circle -->
  <circle cx="24" cy="24" r="22" fill="#0066CC" stroke="#004499" stroke-width="2"/>

  <!-- Letter "O" Design -->
  <path d="M24 10C17.37 10 12 15.37 12 22V26C12 32.63 17.37 38 24 38C30.63 38 36 32.63 36 26V22C36 15.37 30.63 10 24 10ZM32 26C32 30.42 28.42 34 24 34C19.58 34 16 30.42 16 26V22C16 17.58 19.58 14 24 14C28.42 14 32 17.58 32 22V26Z" fill="white"/>

  <!-- Inner accent -->
  <circle cx="24" cy="24" r="6" fill="none" stroke="white" stroke-width="1.5" opacity="0.7"/>

  <!-- Subtle highlight -->
  <ellipse cx="20" cy="18" rx="2" ry="3" fill="white" opacity="0.3"/>
</svg>